<svg xmlns="http://www.w3.org/2000/svg" xmlns:xlink="http://www.w3.org/1999/xlink" width="130" zoomAndPan="magnify" viewBox="0 0 97.5 42" height="56" preserveAspectRatio="xMidYMid meet" version="1.0"><defs><g/><clipPath id="70f4bdbe2b"><path d="M 4.992188 9.414062 L 27.1875 9.414062 L 27.1875 31.609375 L 4.992188 31.609375 Z M 4.992188 9.414062 " clip-rule="nonzero"/></clipPath><clipPath id="a6959a9158"><path d="M 16.089844 9.414062 C 9.960938 9.414062 4.992188 14.382812 4.992188 20.511719 C 4.992188 26.640625 9.960938 31.609375 16.089844 31.609375 C 22.21875 31.609375 27.1875 26.640625 27.1875 20.511719 C 27.1875 14.382812 22.21875 9.414062 16.089844 9.414062 Z M 16.089844 9.414062 " clip-rule="nonzero"/></clipPath><clipPath id="911e4dd68a"><path d="M 0.992188 0.414062 L 23.1875 0.414062 L 23.1875 22.609375 L 0.992188 22.609375 Z M 0.992188 0.414062 " clip-rule="nonzero"/></clipPath><clipPath id="d7b72956a8"><path d="M 12.089844 0.414062 C 5.960938 0.414062 0.992188 5.382812 0.992188 11.511719 C 0.992188 17.640625 5.960938 22.609375 12.089844 22.609375 C 18.21875 22.609375 23.1875 17.640625 23.1875 11.511719 C 23.1875 5.382812 18.21875 0.414062 12.089844 0.414062 Z M 12.089844 0.414062 " clip-rule="nonzero"/></clipPath><clipPath id="b9352c5753"><rect x="0" width="24" y="0" height="23"/></clipPath><clipPath id="442fb3a823"><path d="M 11.085938 12.679688 L 21 12.679688 L 21 23 L 11.085938 23 Z M 11.085938 12.679688 " clip-rule="nonzero"/></clipPath><clipPath id="de5b336e53"><path d="M 16 24 L 21 24 L 21 28.0625 L 16 28.0625 Z M 16 24 " clip-rule="nonzero"/></clipPath><clipPath id="0a2c8c08a5"><rect x="0" width="65" y="0" height="28"/></clipPath></defs><g clip-path="url(#70f4bdbe2b)"><g clip-path="url(#a6959a9158)"><g transform="matrix(1, 0, 0, 1, 4, 9)"><g clip-path="url(#b9352c5753)"><g clip-path="url(#911e4dd68a)"><g clip-path="url(#d7b72956a8)"><path fill="#004aad" d="M 0.992188 0.414062 L 23.1875 0.414062 L 23.1875 22.609375 L 0.992188 22.609375 Z M 0.992188 0.414062 " fill-opacity="1" fill-rule="nonzero"/></g></g></g></g></g></g><g clip-path="url(#442fb3a823)"><path fill="#ffffff" d="M 12.035156 17.976562 L 17.761719 13.335938 C 18.578125 12.679688 19.773438 12.796875 20.429688 13.613281 C 21.089844 14.433594 20.957031 15.628906 20.140625 16.285156 L 14.414062 20.917969 C 13.828125 21.394531 13.507812 22.089844 13.488281 22.789062 L 11.753906 20.648438 L 11.746094 20.636719 C 11.089844 19.832031 11.21875 18.636719 12.035156 17.976562 Z M 12.035156 17.976562 " fill-opacity="1" fill-rule="evenodd"/></g><g clip-path="url(#de5b336e53)"><path fill="#ffffff" d="M 17.503906 24.730469 C 18.308594 24.074219 19.503906 24.203125 20.160156 25.019531 C 20.820312 25.828125 20.699219 27.023438 19.882812 27.679688 C 19.066406 28.335938 17.871094 28.21875 17.214844 27.402344 C 16.554688 26.582031 16.683594 25.386719 17.503906 24.730469 Z M 17.503906 24.730469 " fill-opacity="1" fill-rule="evenodd"/></g><path fill="#ffffff" d="M 17.761719 18.984375 C 18.578125 18.316406 19.761719 18.445312 20.421875 19.261719 C 21.089844 20.070312 20.957031 21.265625 20.140625 21.921875 L 17.175781 24.332031 C 16.578125 24.8125 16.265625 25.519531 16.277344 26.234375 L 14.515625 24.054688 L 14.503906 24.054688 C 13.847656 23.238281 13.976562 22.042969 14.785156 21.382812 L 14.792969 21.382812 Z M 17.761719 18.984375 " fill-opacity="1" fill-rule="evenodd"/><g transform="matrix(1, 0, 0, 1, 27, 6)"><g clip-path="url(#0a2c8c08a5)"><g fill="#004aad" fill-opacity="1"><g transform="translate(2.008508, 20.213392)"><g><path d="M 4.609375 -13.671875 C 5.109375 -13.671875 5.570312 -13.648438 6 -13.609375 C 6.425781 -13.566406 6.875 -13.519531 7.34375 -13.46875 C 7.8125 -13.414062 8.351562 -13.363281 8.96875 -13.3125 C 9.59375 -13.269531 10.359375 -13.25 11.265625 -13.25 C 11.804688 -13.25 12.226562 -13.296875 12.53125 -13.390625 C 12.832031 -13.492188 12.984375 -13.546875 12.984375 -13.546875 C 13.035156 -13.492188 13.082031 -13.414062 13.125 -13.3125 C 13.164062 -13.21875 13.1875 -13.097656 13.1875 -12.953125 C 13.1875 -12.472656 13.015625 -12.066406 12.671875 -11.734375 C 12.328125 -11.398438 11.765625 -11.234375 10.984375 -11.234375 C 10.378906 -11.234375 9.851562 -11.285156 9.40625 -11.390625 C 8.957031 -11.492188 8.535156 -11.625 8.140625 -11.78125 C 7.753906 -11.9375 7.359375 -12.082031 6.953125 -12.21875 L 6.15625 -7.78125 L 8.546875 -7.78125 C 8.878906 -7.78125 9.140625 -7.789062 9.328125 -7.8125 C 9.523438 -7.84375 9.625 -7.859375 9.625 -7.859375 C 9.625 -7.859375 9.648438 -7.816406 9.703125 -7.734375 C 9.753906 -7.660156 9.78125 -7.535156 9.78125 -7.359375 C 9.78125 -7.128906 9.6875 -6.921875 9.5 -6.734375 C 9.320312 -6.554688 8.992188 -6.46875 8.515625 -6.46875 C 8.109375 -6.46875 7.703125 -6.492188 7.296875 -6.546875 C 6.890625 -6.609375 6.453125 -6.660156 5.984375 -6.703125 L 5.140625 -1.921875 C 5.035156 -1.285156 5.003906 -0.835938 5.046875 -0.578125 C 5.097656 -0.316406 5.125 -0.1875 5.125 -0.1875 C 5.125 -0.1875 5.046875 -0.15625 4.890625 -0.09375 C 4.734375 -0.03125 4.460938 0 4.078125 0 C 3.410156 0 2.984375 -0.15625 2.796875 -0.46875 C 2.617188 -0.78125 2.59375 -1.285156 2.71875 -1.984375 L 4.4375 -11.78125 C 4.46875 -11.988281 4.488281 -12.15625 4.5 -12.28125 C 4.507812 -12.414062 4.515625 -12.546875 4.515625 -12.671875 L 4.359375 -12.671875 C 3.535156 -12.671875 2.914062 -12.472656 2.5 -12.078125 C 2.082031 -11.679688 1.875 -11.222656 1.875 -10.703125 C 1.875 -10.453125 1.9375 -10.25 2.0625 -10.09375 C 2.195312 -9.9375 2.378906 -9.859375 2.609375 -9.859375 C 2.703125 -9.859375 2.773438 -9.867188 2.828125 -9.890625 C 2.890625 -9.910156 2.921875 -9.921875 2.921875 -9.921875 C 2.921875 -9.921875 2.921875 -9.90625 2.921875 -9.875 C 2.929688 -9.851562 2.9375 -9.8125 2.9375 -9.75 C 2.9375 -9.53125 2.820312 -9.304688 2.59375 -9.078125 C 2.363281 -8.847656 2.015625 -8.734375 1.546875 -8.734375 C 0.953125 -8.734375 0.484375 -8.898438 0.140625 -9.234375 C -0.191406 -9.566406 -0.359375 -10.007812 -0.359375 -10.5625 C -0.359375 -11.457031 0.046875 -12.195312 0.859375 -12.78125 C 1.671875 -13.375 2.921875 -13.671875 4.609375 -13.671875 Z M 4.609375 -13.671875 "/></g></g></g><g fill="#004aad" fill-opacity="1"><g transform="translate(14.093763, 20.213392)"><g><path d="M -0.203125 -4.015625 L 1.453125 -13.40625 C 1.554688 -13.976562 1.585938 -14.378906 1.546875 -14.609375 C 1.503906 -14.847656 1.484375 -14.96875 1.484375 -14.96875 C 1.484375 -14.96875 1.554688 -14.992188 1.703125 -15.046875 C 1.847656 -15.109375 2.085938 -15.140625 2.421875 -15.140625 C 3.128906 -15.140625 3.554688 -15 3.703125 -14.71875 C 3.859375 -14.4375 3.882812 -13.972656 3.78125 -13.328125 L 1.984375 -3.1875 C 1.898438 -2.65625 1.925781 -2.253906 2.0625 -1.984375 C 2.207031 -1.722656 2.441406 -1.59375 2.765625 -1.59375 C 3.128906 -1.59375 3.5 -1.734375 3.875 -2.015625 C 4.257812 -2.296875 4.566406 -2.679688 4.796875 -3.171875 C 4.921875 -3.171875 5.015625 -3.132812 5.078125 -3.0625 C 5.140625 -2.988281 5.160156 -2.867188 5.140625 -2.703125 C 5.085938 -2.453125 4.96875 -2.175781 4.78125 -1.875 C 4.59375 -1.570312 4.347656 -1.273438 4.046875 -0.984375 C 3.742188 -0.703125 3.394531 -0.46875 3 -0.28125 C 2.613281 -0.09375 2.203125 0 1.765625 0 C 1.140625 0 0.628906 -0.195312 0.234375 -0.59375 C -0.160156 -0.988281 -0.359375 -1.550781 -0.359375 -2.28125 C -0.359375 -2.457031 -0.347656 -2.695312 -0.328125 -3 C -0.304688 -3.3125 -0.265625 -3.648438 -0.203125 -4.015625 Z M -0.203125 -4.015625 "/></g></g></g><g fill="#004aad" fill-opacity="1"><g transform="translate(19.069929, 20.213392)"><g><path d="M 4.5 -9.125 C 5.570312 -9.125 6.398438 -8.800781 6.984375 -8.15625 C 7.566406 -7.519531 7.859375 -6.679688 7.859375 -5.640625 C 7.859375 -5.441406 7.847656 -5.242188 7.828125 -5.046875 C 7.804688 -4.859375 7.785156 -4.671875 7.765625 -4.484375 C 8.222656 -4.554688 8.617188 -4.707031 8.953125 -4.9375 C 9.285156 -5.164062 9.535156 -5.382812 9.703125 -5.59375 C 9.878906 -5.800781 9.96875 -5.90625 9.96875 -5.90625 C 10.226562 -5.90625 10.335938 -5.753906 10.296875 -5.453125 C 10.265625 -5.242188 10.125 -5.007812 9.875 -4.75 C 9.625 -4.488281 9.300781 -4.253906 8.90625 -4.046875 C 8.507812 -3.835938 8.066406 -3.703125 7.578125 -3.640625 C 7.273438 -2.566406 6.710938 -1.691406 5.890625 -1.015625 C 5.078125 -0.335938 4.050781 0 2.8125 0 C 1.851562 0 1.050781 -0.296875 0.40625 -0.890625 C -0.226562 -1.484375 -0.546875 -2.347656 -0.546875 -3.484375 C -0.546875 -4.585938 -0.34375 -5.5625 0.0625 -6.40625 C 0.46875 -7.25 1.050781 -7.910156 1.8125 -8.390625 C 2.570312 -8.878906 3.46875 -9.125 4.5 -9.125 Z M 4.578125 -5.578125 C 4.578125 -5.890625 4.65625 -6.160156 4.8125 -6.390625 C 4.96875 -6.617188 5.195312 -6.757812 5.5 -6.8125 C 5.40625 -7.75 5.015625 -8.21875 4.328125 -8.21875 C 3.867188 -8.21875 3.421875 -7.953125 2.984375 -7.421875 C 2.546875 -6.890625 2.203125 -5.941406 1.953125 -4.578125 C 1.898438 -4.347656 1.859375 -4.035156 1.828125 -3.640625 C 1.796875 -3.242188 1.78125 -2.929688 1.78125 -2.703125 C 1.78125 -2.128906 1.882812 -1.6875 2.09375 -1.375 C 2.3125 -1.0625 2.609375 -0.90625 2.984375 -0.90625 C 3.484375 -0.90625 3.929688 -1.171875 4.328125 -1.703125 C 4.722656 -2.234375 5.035156 -3.046875 5.265625 -4.140625 C 4.804688 -4.492188 4.578125 -4.972656 4.578125 -5.578125 Z M 4.578125 -5.578125 "/></g></g></g><g fill="#004aad" fill-opacity="1"><g transform="translate(28.748849, 20.213392)"><g><path d="M 13.390625 -3.671875 C 13.117188 -3.671875 12.863281 -3.710938 12.625 -3.796875 C 12.382812 -3.878906 12.175781 -3.984375 12 -4.109375 C 11.875 -3.753906 11.742188 -3.421875 11.609375 -3.109375 C 11.484375 -2.796875 11.347656 -2.523438 11.203125 -2.296875 C 10.785156 -1.628906 10.328125 -1.078125 9.828125 -0.640625 C 9.328125 -0.210938 8.710938 0 7.984375 0 C 7.335938 0 6.796875 -0.179688 6.359375 -0.546875 C 5.929688 -0.910156 5.632812 -1.40625 5.46875 -2.03125 C 5.113281 -1.457031 4.691406 -0.972656 4.203125 -0.578125 C 3.710938 -0.191406 3.144531 0 2.5 0 C 1.582031 0 0.90625 -0.300781 0.46875 -0.90625 C 0.03125 -1.507812 -0.1875 -2.332031 -0.1875 -3.375 C -0.1875 -3.820312 -0.15625 -4.300781 -0.09375 -4.8125 C -0.0390625 -5.332031 0.0234375 -5.882812 0.109375 -6.46875 L 0.25 -7.390625 C 0.351562 -7.953125 0.382812 -8.351562 0.34375 -8.59375 C 0.300781 -8.832031 0.28125 -8.953125 0.28125 -8.953125 C 0.28125 -8.953125 0.351562 -8.976562 0.5 -9.03125 C 0.644531 -9.09375 0.882812 -9.125 1.21875 -9.125 C 1.925781 -9.125 2.351562 -8.984375 2.5 -8.703125 C 2.65625 -8.421875 2.679688 -7.957031 2.578125 -7.3125 L 2.3125 -5.828125 C 2.226562 -5.367188 2.171875 -4.945312 2.140625 -4.5625 C 2.109375 -4.1875 2.09375 -3.851562 2.09375 -3.5625 C 2.09375 -2.8125 2.203125 -2.296875 2.421875 -2.015625 C 2.648438 -1.734375 2.960938 -1.59375 3.359375 -1.59375 C 3.804688 -1.59375 4.195312 -1.816406 4.53125 -2.265625 C 4.863281 -2.722656 5.128906 -3.328125 5.328125 -4.078125 C 5.359375 -4.859375 5.441406 -5.65625 5.578125 -6.46875 L 5.71875 -7.390625 C 5.820312 -7.953125 5.851562 -8.351562 5.8125 -8.59375 C 5.769531 -8.832031 5.75 -8.953125 5.75 -8.953125 C 5.75 -8.953125 5.820312 -8.976562 5.96875 -9.03125 C 6.113281 -9.09375 6.351562 -9.125 6.6875 -9.125 C 7.394531 -9.125 7.820312 -8.984375 7.96875 -8.703125 C 8.125 -8.421875 8.148438 -7.957031 8.046875 -7.3125 L 7.78125 -5.828125 C 7.695312 -5.316406 7.632812 -4.875 7.59375 -4.5 C 7.5625 -4.132812 7.546875 -3.796875 7.546875 -3.484375 C 7.546875 -2.816406 7.65625 -2.332031 7.875 -2.03125 C 8.09375 -1.738281 8.410156 -1.59375 8.828125 -1.59375 C 9.359375 -1.59375 9.832031 -1.90625 10.25 -2.53125 C 10.664062 -3.164062 10.9375 -4.007812 11.0625 -5.0625 C 10.8125 -5.445312 10.613281 -5.863281 10.46875 -6.3125 C 10.332031 -6.757812 10.265625 -7.242188 10.265625 -7.765625 C 10.265625 -8.148438 10.375 -8.472656 10.59375 -8.734375 C 10.820312 -8.992188 11.125 -9.125 11.5 -9.125 C 11.820312 -9.125 12.09375 -9.015625 12.3125 -8.796875 C 12.539062 -8.585938 12.65625 -8.238281 12.65625 -7.75 C 12.65625 -7.332031 12.617188 -6.894531 12.546875 -6.4375 C 12.484375 -5.976562 12.390625 -5.519531 12.265625 -5.0625 C 12.398438 -4.894531 12.566406 -4.753906 12.765625 -4.640625 C 12.972656 -4.523438 13.222656 -4.46875 13.515625 -4.46875 C 13.867188 -4.46875 14.164062 -4.539062 14.40625 -4.6875 C 14.644531 -4.832031 14.84375 -5 15 -5.1875 C 15.164062 -5.375 15.285156 -5.539062 15.359375 -5.6875 C 15.429688 -5.832031 15.46875 -5.90625 15.46875 -5.90625 C 15.613281 -5.90625 15.707031 -5.851562 15.75 -5.75 C 15.800781 -5.644531 15.816406 -5.546875 15.796875 -5.453125 C 15.753906 -5.242188 15.640625 -4.992188 15.453125 -4.703125 C 15.265625 -4.421875 14.992188 -4.175781 14.640625 -3.96875 C 14.296875 -3.769531 13.878906 -3.671875 13.390625 -3.671875 Z M 13.390625 -3.671875 "/></g></g></g><g fill="#004aad" fill-opacity="1"><g transform="translate(43.276354, 20.213392)"><g><path d="M 2.21875 -3.890625 L 1.859375 -1.734375 C 1.765625 -1.160156 1.738281 -0.753906 1.78125 -0.515625 C 1.820312 -0.285156 1.84375 -0.171875 1.84375 -0.171875 C 1.84375 -0.171875 1.769531 -0.140625 1.625 -0.078125 C 1.476562 -0.0234375 1.234375 0 0.890625 0 C 0.179688 0 -0.242188 -0.140625 -0.390625 -0.421875 C -0.546875 -0.710938 -0.566406 -1.175781 -0.453125 -1.8125 L 1.5625 -13.40625 C 1.664062 -13.976562 1.695312 -14.378906 1.65625 -14.609375 C 1.613281 -14.847656 1.59375 -14.96875 1.59375 -14.96875 C 1.59375 -14.96875 1.664062 -14.992188 1.8125 -15.046875 C 1.957031 -15.109375 2.195312 -15.140625 2.53125 -15.140625 C 3.238281 -15.140625 3.664062 -15 3.8125 -14.71875 C 3.96875 -14.4375 3.992188 -13.972656 3.890625 -13.328125 L 2.390625 -4.78125 L 3.125 -4.78125 C 3.363281 -4.78125 3.578125 -4.894531 3.765625 -5.125 C 3.953125 -5.363281 4.101562 -5.59375 4.21875 -5.8125 L 4.921875 -7.28125 C 5.285156 -8.019531 5.628906 -8.507812 5.953125 -8.75 C 6.273438 -9 6.628906 -9.125 7.015625 -9.125 C 7.390625 -9.125 7.679688 -9.007812 7.890625 -8.78125 C 8.097656 -8.550781 8.203125 -8.25 8.203125 -7.875 C 8.203125 -7.601562 8.148438 -7.375 8.046875 -7.1875 C 7.941406 -7 7.832031 -6.859375 7.71875 -6.765625 C 7.613281 -6.671875 7.5625 -6.625 7.5625 -6.625 C 7.5625 -6.625 7.535156 -6.675781 7.484375 -6.78125 C 7.441406 -6.894531 7.359375 -7.003906 7.234375 -7.109375 C 7.117188 -7.222656 6.9375 -7.28125 6.6875 -7.28125 C 6.175781 -7.28125 5.753906 -6.914062 5.421875 -6.1875 L 5.109375 -5.53125 C 4.953125 -5.175781 4.738281 -4.898438 4.46875 -4.703125 C 4.8125 -4.617188 5.078125 -4.472656 5.265625 -4.265625 C 5.460938 -4.054688 5.609375 -3.804688 5.703125 -3.515625 L 5.90625 -2.875 C 6.039062 -2.46875 6.207031 -2.148438 6.40625 -1.921875 C 6.601562 -1.703125 6.894531 -1.59375 7.28125 -1.59375 C 7.664062 -1.59375 8.035156 -1.75 8.390625 -2.0625 C 8.753906 -2.382812 9.035156 -2.753906 9.234375 -3.171875 C 9.347656 -3.171875 9.4375 -3.132812 9.5 -3.0625 C 9.570312 -2.988281 9.597656 -2.867188 9.578125 -2.703125 C 9.535156 -2.453125 9.421875 -2.175781 9.234375 -1.875 C 9.054688 -1.570312 8.816406 -1.273438 8.515625 -0.984375 C 8.222656 -0.703125 7.890625 -0.46875 7.515625 -0.28125 C 7.140625 -0.09375 6.738281 0 6.3125 0 C 5.695312 0 5.175781 -0.171875 4.75 -0.515625 C 4.320312 -0.867188 4 -1.410156 3.78125 -2.140625 L 3.484375 -3.09375 C 3.398438 -3.351562 3.289062 -3.550781 3.15625 -3.6875 C 3.03125 -3.820312 2.847656 -3.890625 2.609375 -3.890625 Z M 2.21875 -3.890625 "/></g></g></g><g fill="#004aad" fill-opacity="1"><g transform="translate(52.681861, 20.213392)"><g><path d="M 8.046875 -7.3125 L 7.0625 -1.53125 C 7.0625 -1.53125 7.160156 -1.570312 7.359375 -1.65625 C 7.554688 -1.738281 7.8125 -1.859375 8.125 -2.015625 C 8.445312 -2.171875 8.773438 -2.347656 9.109375 -2.546875 C 9.453125 -2.742188 9.757812 -2.953125 10.03125 -3.171875 C 10.15625 -3.171875 10.25 -3.132812 10.3125 -3.0625 C 10.375 -2.988281 10.394531 -2.882812 10.375 -2.75 C 10.34375 -2.59375 10.144531 -2.375 9.78125 -2.09375 C 9.4375 -1.84375 9 -1.566406 8.46875 -1.265625 C 7.9375 -0.972656 7.40625 -0.691406 6.875 -0.421875 L 6.84375 -0.203125 C 6.488281 1.910156 5.882812 3.535156 5.03125 4.671875 C 4.175781 5.804688 3.078125 6.375 1.734375 6.375 C 1.109375 6.375 0.609375 6.195312 0.234375 5.84375 C -0.128906 5.488281 -0.3125 5.03125 -0.3125 4.46875 C -0.3125 3.9375 -0.171875 3.425781 0.109375 2.9375 C 0.398438 2.445312 0.769531 2.015625 1.21875 1.640625 C 1.6875 1.253906 2.175781 0.90625 2.6875 0.59375 C 3.195312 0.28125 3.820312 -0.0546875 4.5625 -0.421875 L 4.9375 -2.765625 C 4.820312 -2.535156 4.703125 -2.320312 4.578125 -2.125 C 4.453125 -1.925781 4.320312 -1.734375 4.1875 -1.546875 C 3.8125 -1.023438 3.414062 -0.632812 3 -0.375 C 2.582031 -0.125 2.125 0 1.625 0 C 1.019531 0 0.535156 -0.191406 0.171875 -0.578125 C -0.179688 -0.972656 -0.359375 -1.484375 -0.359375 -2.109375 C -0.359375 -2.453125 -0.34375 -2.789062 -0.3125 -3.125 C -0.289062 -3.46875 -0.234375 -3.878906 -0.140625 -4.359375 L 0.390625 -7.390625 C 0.484375 -7.953125 0.507812 -8.351562 0.46875 -8.59375 C 0.425781 -8.832031 0.40625 -8.953125 0.40625 -8.953125 C 0.40625 -8.953125 0.476562 -8.976562 0.625 -9.03125 C 0.769531 -9.09375 1.007812 -9.125 1.34375 -9.125 C 2.050781 -9.125 2.476562 -8.984375 2.625 -8.703125 C 2.78125 -8.421875 2.804688 -7.957031 2.703125 -7.3125 L 1.96875 -3.09375 C 1.882812 -2.570312 1.894531 -2.191406 2 -1.953125 C 2.113281 -1.710938 2.304688 -1.59375 2.578125 -1.59375 C 2.773438 -1.59375 2.988281 -1.703125 3.21875 -1.921875 C 3.457031 -2.148438 3.691406 -2.445312 3.921875 -2.8125 C 4.273438 -3.351562 4.617188 -4.019531 4.953125 -4.8125 C 5.285156 -5.613281 5.539062 -6.472656 5.71875 -7.390625 C 5.832031 -7.953125 5.863281 -8.351562 5.8125 -8.59375 C 5.769531 -8.832031 5.75 -8.953125 5.75 -8.953125 C 5.75 -8.953125 5.820312 -8.976562 5.96875 -9.03125 C 6.113281 -9.09375 6.351562 -9.125 6.6875 -9.125 C 7.394531 -9.125 7.820312 -8.984375 7.96875 -8.703125 C 8.125 -8.421875 8.148438 -7.957031 8.046875 -7.3125 Z M 1.546875 5.171875 C 2.191406 5.171875 2.753906 4.796875 3.234375 4.046875 C 3.710938 3.296875 4.085938 2.191406 4.359375 0.734375 C 3.171875 1.347656 2.3125 1.90625 1.78125 2.40625 C 1.070312 3.101562 0.71875 3.753906 0.71875 4.359375 C 0.71875 4.585938 0.785156 4.78125 0.921875 4.9375 C 1.054688 5.09375 1.265625 5.171875 1.546875 5.171875 Z M 1.546875 5.171875 "/></g></g></g></g></g></svg>