<svg xmlns="http://www.w3.org/2000/svg" xmlns:xlink="http://www.w3.org/1999/xlink" width="130" zoomAndPan="magnify" viewBox="0 0 97.5 42" height="56" preserveAspectRatio="xMidYMid meet" version="1.0"><defs><g/><clipPath id="da5f9f1487"><path d="M 4.992188 4.101562 L 37.808594 4.101562 L 37.808594 36.921875 L 4.992188 36.921875 Z M 4.992188 4.101562 " clip-rule="nonzero"/></clipPath><clipPath id="61a00a6dac"><path d="M 21.402344 4.101562 C 12.339844 4.101562 4.992188 11.449219 4.992188 20.511719 C 4.992188 29.574219 12.339844 36.921875 21.402344 36.921875 C 30.464844 36.921875 37.808594 29.574219 37.808594 20.511719 C 37.808594 11.449219 30.464844 4.101562 21.402344 4.101562 Z M 21.402344 4.101562 " clip-rule="nonzero"/></clipPath><clipPath id="0f1ac8acbd"><path d="M 0.992188 0.101562 L 33.808594 0.101562 L 33.808594 32.921875 L 0.992188 32.921875 Z M 0.992188 0.101562 " clip-rule="nonzero"/></clipPath><clipPath id="85d4e91016"><path d="M 17.402344 0.101562 C 8.339844 0.101562 0.992188 7.449219 0.992188 16.511719 C 0.992188 25.574219 8.339844 32.921875 17.402344 32.921875 C 26.464844 32.921875 33.808594 25.574219 33.808594 16.511719 C 33.808594 7.449219 26.464844 0.101562 17.402344 0.101562 Z M 17.402344 0.101562 " clip-rule="nonzero"/></clipPath><clipPath id="a513900adc"><rect x="0" width="34" y="0" height="33"/></clipPath><clipPath id="f6aa924a7e"><path d="M 14.003906 9 L 28.65625 9 L 28.65625 24 L 14.003906 24 Z M 14.003906 9 " clip-rule="nonzero"/></clipPath><clipPath id="e94c959887"><path d="M 22 26 L 28.65625 26 L 28.65625 32 L 22 32 Z M 22 26 " clip-rule="nonzero"/></clipPath><clipPath id="4796b0e611"><path d="M 18 17 L 28.65625 17 L 28.65625 29 L 18 29 Z M 18 17 " clip-rule="nonzero"/></clipPath><clipPath id="6c332c269b"><rect x="0" width="56" y="0" height="24"/></clipPath></defs><g clip-path="url(#da5f9f1487)"><g clip-path="url(#61a00a6dac)"><g transform="matrix(1, 0, 0, 1, 4, 4)"><g clip-path="url(#a513900adc)"><g clip-path="url(#0f1ac8acbd)"><g clip-path="url(#85d4e91016)"><path fill="#004aad" d="M 0.992188 0.101562 L 33.808594 0.101562 L 33.808594 32.921875 L 0.992188 32.921875 Z M 0.992188 0.101562 " fill-opacity="1" fill-rule="nonzero"/></g></g></g></g></g></g><g clip-path="url(#f6aa924a7e)"><path fill="#ffffff" d="M 15.402344 16.765625 L 23.871094 9.902344 C 25.078125 8.929688 26.847656 9.105469 27.820312 10.316406 C 28.789062 11.523438 28.601562 13.289062 27.390625 14.261719 L 18.921875 21.113281 C 18.054688 21.820312 17.582031 22.851562 17.554688 23.882812 L 14.988281 20.714844 L 14.976562 20.699219 C 14.003906 19.507812 14.195312 17.738281 15.402344 16.765625 Z M 15.402344 16.765625 " fill-opacity="1" fill-rule="evenodd"/></g><g clip-path="url(#e94c959887)"><path fill="#ffffff" d="M 23.488281 26.753906 C 24.679688 25.78125 26.449219 25.972656 27.421875 27.179688 C 28.394531 28.375 28.214844 30.140625 27.007812 31.113281 C 25.800781 32.085938 24.03125 31.910156 23.0625 30.699219 C 22.089844 29.492188 22.28125 27.726562 23.488281 26.753906 Z M 23.488281 26.753906 " fill-opacity="1" fill-rule="evenodd"/></g><g clip-path="url(#4796b0e611)"><path fill="#ffffff" d="M 23.871094 18.253906 C 25.078125 17.265625 26.832031 17.457031 27.804688 18.667969 C 28.789062 19.859375 28.597656 21.628906 27.390625 22.597656 L 23.003906 26.164062 C 22.117188 26.871094 21.660156 27.917969 21.675781 28.976562 L 19.070312 25.75 L 19.054688 25.75 C 18.082031 24.542969 18.273438 22.777344 19.46875 21.804688 L 19.480469 21.804688 Z M 23.871094 18.253906 " fill-opacity="1" fill-rule="evenodd"/></g><g transform="matrix(1, 0, 0, 1, 38, 8)"><g clip-path="url(#6c332c269b)"><g fill="#004aad" fill-opacity="1"><g transform="translate(2.02927, 17.328137)"><g><path d="M 3.890625 -11.546875 C 4.316406 -11.546875 4.707031 -11.53125 5.0625 -11.5 C 5.425781 -11.46875 5.804688 -11.425781 6.203125 -11.375 C 6.597656 -11.332031 7.054688 -11.289062 7.578125 -11.25 C 8.097656 -11.21875 8.742188 -11.203125 9.515625 -11.203125 C 9.972656 -11.203125 10.328125 -11.242188 10.578125 -11.328125 C 10.835938 -11.410156 10.96875 -11.453125 10.96875 -11.453125 C 11.007812 -11.410156 11.046875 -11.34375 11.078125 -11.25 C 11.117188 -11.164062 11.140625 -11.0625 11.140625 -10.9375 C 11.140625 -10.539062 10.992188 -10.195312 10.703125 -9.90625 C 10.421875 -9.625 9.945312 -9.484375 9.28125 -9.484375 C 8.769531 -9.484375 8.320312 -9.523438 7.9375 -9.609375 C 7.5625 -9.703125 7.207031 -9.816406 6.875 -9.953125 C 6.550781 -10.085938 6.21875 -10.210938 5.875 -10.328125 L 5.203125 -6.578125 L 7.21875 -6.578125 C 7.5 -6.578125 7.722656 -6.585938 7.890625 -6.609375 C 8.054688 -6.628906 8.140625 -6.640625 8.140625 -6.640625 C 8.140625 -6.640625 8.15625 -6.601562 8.1875 -6.53125 C 8.226562 -6.46875 8.25 -6.363281 8.25 -6.21875 C 8.25 -6.03125 8.171875 -5.859375 8.015625 -5.703125 C 7.867188 -5.546875 7.59375 -5.46875 7.1875 -5.46875 C 6.851562 -5.46875 6.515625 -5.488281 6.171875 -5.53125 C 5.828125 -5.582031 5.453125 -5.628906 5.046875 -5.671875 L 4.34375 -1.625 C 4.25 -1.082031 4.222656 -0.703125 4.265625 -0.484375 C 4.304688 -0.265625 4.328125 -0.15625 4.328125 -0.15625 C 4.328125 -0.15625 4.257812 -0.128906 4.125 -0.078125 C 3.988281 -0.0234375 3.765625 0 3.453125 0 C 2.890625 0 2.53125 -0.128906 2.375 -0.390625 C 2.21875 -0.648438 2.191406 -1.078125 2.296875 -1.671875 L 3.75 -9.953125 C 3.78125 -10.128906 3.800781 -10.269531 3.8125 -10.375 C 3.820312 -10.488281 3.828125 -10.597656 3.828125 -10.703125 L 3.6875 -10.703125 C 2.988281 -10.703125 2.460938 -10.535156 2.109375 -10.203125 C 1.765625 -9.867188 1.59375 -9.484375 1.59375 -9.046875 C 1.59375 -8.828125 1.644531 -8.648438 1.75 -8.515625 C 1.851562 -8.390625 2.003906 -8.328125 2.203125 -8.328125 C 2.285156 -8.328125 2.347656 -8.332031 2.390625 -8.34375 C 2.441406 -8.363281 2.46875 -8.375 2.46875 -8.375 C 2.46875 -8.375 2.46875 -8.363281 2.46875 -8.34375 C 2.476562 -8.320312 2.484375 -8.289062 2.484375 -8.25 C 2.484375 -8.0625 2.382812 -7.867188 2.1875 -7.671875 C 1.988281 -7.472656 1.695312 -7.375 1.3125 -7.375 C 0.800781 -7.375 0.398438 -7.515625 0.109375 -7.796875 C -0.171875 -8.085938 -0.3125 -8.460938 -0.3125 -8.921875 C -0.3125 -9.679688 0.03125 -10.304688 0.71875 -10.796875 C 1.40625 -11.296875 2.460938 -11.546875 3.890625 -11.546875 Z M 3.890625 -11.546875 "/></g></g></g><g fill="#004aad" fill-opacity="1"><g transform="translate(12.23817, 17.328137)"><g><path d="M -0.171875 -3.390625 L 1.234375 -11.328125 C 1.316406 -11.804688 1.335938 -12.144531 1.296875 -12.34375 C 1.265625 -12.539062 1.25 -12.640625 1.25 -12.640625 C 1.25 -12.640625 1.3125 -12.660156 1.4375 -12.703125 C 1.5625 -12.753906 1.765625 -12.78125 2.046875 -12.78125 C 2.640625 -12.78125 3 -12.660156 3.125 -12.421875 C 3.257812 -12.191406 3.28125 -11.804688 3.1875 -11.265625 L 1.671875 -2.703125 C 1.609375 -2.242188 1.632812 -1.898438 1.75 -1.671875 C 1.863281 -1.453125 2.0625 -1.34375 2.34375 -1.34375 C 2.644531 -1.34375 2.957031 -1.460938 3.28125 -1.703125 C 3.601562 -1.941406 3.859375 -2.269531 4.046875 -2.6875 C 4.148438 -2.6875 4.226562 -2.65625 4.28125 -2.59375 C 4.34375 -2.53125 4.363281 -2.425781 4.34375 -2.28125 C 4.300781 -2.070312 4.203125 -1.835938 4.046875 -1.578125 C 3.890625 -1.328125 3.679688 -1.082031 3.421875 -0.84375 C 3.160156 -0.601562 2.863281 -0.398438 2.53125 -0.234375 C 2.207031 -0.078125 1.863281 0 1.5 0 C 0.957031 0 0.519531 -0.164062 0.1875 -0.5 C -0.144531 -0.832031 -0.3125 -1.304688 -0.3125 -1.921875 C -0.3125 -2.078125 -0.300781 -2.28125 -0.28125 -2.53125 C -0.257812 -2.789062 -0.222656 -3.078125 -0.171875 -3.390625 Z M -0.171875 -3.390625 "/></g></g></g><g fill="#004aad" fill-opacity="1"><g transform="translate(16.441738, 17.328137)"><g><path d="M 3.8125 -7.703125 C 4.707031 -7.703125 5.398438 -7.429688 5.890625 -6.890625 C 6.390625 -6.347656 6.640625 -5.640625 6.640625 -4.765625 C 6.640625 -4.597656 6.628906 -4.429688 6.609375 -4.265625 C 6.597656 -4.097656 6.582031 -3.941406 6.5625 -3.796875 C 6.957031 -3.847656 7.289062 -3.972656 7.5625 -4.171875 C 7.84375 -4.367188 8.054688 -4.550781 8.203125 -4.71875 C 8.347656 -4.894531 8.421875 -4.984375 8.421875 -4.984375 C 8.640625 -4.984375 8.734375 -4.859375 8.703125 -4.609375 C 8.671875 -4.429688 8.550781 -4.234375 8.34375 -4.015625 C 8.132812 -3.796875 7.863281 -3.597656 7.53125 -3.421875 C 7.195312 -3.242188 6.820312 -3.128906 6.40625 -3.078125 C 6.15625 -2.160156 5.679688 -1.414062 4.984375 -0.84375 C 4.285156 -0.28125 3.414062 0 2.375 0 C 1.5625 0 0.882812 -0.25 0.34375 -0.75 C -0.195312 -1.257812 -0.46875 -1.988281 -0.46875 -2.9375 C -0.46875 -3.875 -0.296875 -4.695312 0.046875 -5.40625 C 0.390625 -6.125 0.882812 -6.6875 1.53125 -7.09375 C 2.175781 -7.5 2.9375 -7.703125 3.8125 -7.703125 Z M 3.859375 -4.71875 C 3.859375 -4.976562 3.925781 -5.203125 4.0625 -5.390625 C 4.195312 -5.585938 4.394531 -5.710938 4.65625 -5.765625 C 4.570312 -6.554688 4.238281 -6.953125 3.65625 -6.953125 C 3.269531 -6.953125 2.890625 -6.722656 2.515625 -6.265625 C 2.148438 -5.816406 1.863281 -5.015625 1.65625 -3.859375 C 1.613281 -3.671875 1.578125 -3.410156 1.546875 -3.078125 C 1.523438 -2.742188 1.515625 -2.476562 1.515625 -2.28125 C 1.515625 -1.800781 1.601562 -1.425781 1.78125 -1.15625 C 1.957031 -0.894531 2.207031 -0.765625 2.53125 -0.765625 C 2.945312 -0.765625 3.320312 -0.988281 3.65625 -1.4375 C 3.988281 -1.882812 4.253906 -2.570312 4.453125 -3.5 C 4.054688 -3.789062 3.859375 -4.195312 3.859375 -4.71875 Z M 3.859375 -4.71875 "/></g></g></g><g fill="#004aad" fill-opacity="1"><g transform="translate(24.617909, 17.328137)"><g><path d="M 11.3125 -3.09375 C 11.082031 -3.09375 10.867188 -3.128906 10.671875 -3.203125 C 10.472656 -3.273438 10.296875 -3.363281 10.140625 -3.46875 C 10.035156 -3.164062 9.925781 -2.882812 9.8125 -2.625 C 9.695312 -2.363281 9.578125 -2.132812 9.453125 -1.9375 C 9.109375 -1.375 8.722656 -0.910156 8.296875 -0.546875 C 7.878906 -0.179688 7.363281 0 6.75 0 C 6.207031 0 5.753906 -0.148438 5.390625 -0.453125 C 5.023438 -0.765625 4.769531 -1.179688 4.625 -1.703125 C 4.320312 -1.222656 3.960938 -0.816406 3.546875 -0.484375 C 3.128906 -0.160156 2.648438 0 2.109375 0 C 1.335938 0 0.765625 -0.253906 0.390625 -0.765625 C 0.0234375 -1.273438 -0.15625 -1.96875 -0.15625 -2.84375 C -0.15625 -3.226562 -0.128906 -3.640625 -0.078125 -4.078125 C -0.0351562 -4.515625 0.0195312 -4.976562 0.09375 -5.46875 L 0.21875 -6.234375 C 0.300781 -6.722656 0.320312 -7.066406 0.28125 -7.265625 C 0.25 -7.460938 0.234375 -7.5625 0.234375 -7.5625 C 0.234375 -7.5625 0.289062 -7.582031 0.40625 -7.625 C 0.53125 -7.675781 0.738281 -7.703125 1.03125 -7.703125 C 1.625 -7.703125 1.984375 -7.582031 2.109375 -7.34375 C 2.242188 -7.113281 2.265625 -6.722656 2.171875 -6.171875 L 1.953125 -4.9375 C 1.878906 -4.539062 1.828125 -4.179688 1.796875 -3.859375 C 1.773438 -3.535156 1.765625 -3.25 1.765625 -3 C 1.765625 -2.375 1.859375 -1.941406 2.046875 -1.703125 C 2.242188 -1.460938 2.503906 -1.34375 2.828125 -1.34375 C 3.210938 -1.34375 3.546875 -1.535156 3.828125 -1.921875 C 4.109375 -2.304688 4.332031 -2.816406 4.5 -3.453125 C 4.53125 -4.109375 4.601562 -4.78125 4.71875 -5.46875 L 4.84375 -6.234375 C 4.914062 -6.722656 4.9375 -7.066406 4.90625 -7.265625 C 4.875 -7.460938 4.859375 -7.5625 4.859375 -7.5625 C 4.859375 -7.5625 4.914062 -7.582031 5.03125 -7.625 C 5.15625 -7.675781 5.363281 -7.703125 5.65625 -7.703125 C 6.25 -7.703125 6.609375 -7.582031 6.734375 -7.34375 C 6.867188 -7.113281 6.890625 -6.722656 6.796875 -6.171875 L 6.578125 -4.9375 C 6.503906 -4.5 6.453125 -4.125 6.421875 -3.8125 C 6.390625 -3.5 6.375 -3.207031 6.375 -2.9375 C 6.375 -2.375 6.46875 -1.96875 6.65625 -1.71875 C 6.84375 -1.46875 7.109375 -1.34375 7.453125 -1.34375 C 7.910156 -1.34375 8.3125 -1.609375 8.65625 -2.140625 C 9.007812 -2.671875 9.238281 -3.382812 9.34375 -4.28125 C 9.132812 -4.601562 8.96875 -4.953125 8.84375 -5.328125 C 8.726562 -5.710938 8.671875 -6.125 8.671875 -6.5625 C 8.671875 -6.894531 8.765625 -7.164062 8.953125 -7.375 C 9.148438 -7.59375 9.40625 -7.703125 9.71875 -7.703125 C 9.988281 -7.703125 10.21875 -7.609375 10.40625 -7.421875 C 10.59375 -7.242188 10.6875 -6.953125 10.6875 -6.546875 C 10.6875 -6.203125 10.65625 -5.832031 10.59375 -5.4375 C 10.539062 -5.050781 10.46875 -4.664062 10.375 -4.28125 C 10.476562 -4.132812 10.613281 -4.015625 10.78125 -3.921875 C 10.957031 -3.828125 11.171875 -3.78125 11.421875 -3.78125 C 11.710938 -3.78125 11.960938 -3.835938 12.171875 -3.953125 C 12.378906 -4.078125 12.546875 -4.21875 12.671875 -4.375 C 12.804688 -4.539062 12.90625 -4.679688 12.96875 -4.796875 C 13.03125 -4.921875 13.0625 -4.984375 13.0625 -4.984375 C 13.1875 -4.984375 13.269531 -4.941406 13.3125 -4.859375 C 13.351562 -4.773438 13.363281 -4.691406 13.34375 -4.609375 C 13.3125 -4.429688 13.210938 -4.222656 13.046875 -3.984375 C 12.890625 -3.742188 12.664062 -3.535156 12.375 -3.359375 C 12.082031 -3.179688 11.726562 -3.09375 11.3125 -3.09375 Z M 11.3125 -3.09375 "/></g></g></g><g fill="#004aad" fill-opacity="1"><g transform="translate(36.889876, 17.328137)"><g><path d="M 1.875 -3.28125 L 1.578125 -1.46875 C 1.492188 -0.976562 1.46875 -0.632812 1.5 -0.4375 C 1.539062 -0.238281 1.5625 -0.140625 1.5625 -0.140625 C 1.5625 -0.140625 1.5 -0.113281 1.375 -0.0625 C 1.25 -0.0195312 1.039062 0 0.75 0 C 0.15625 0 -0.203125 -0.117188 -0.328125 -0.359375 C -0.460938 -0.597656 -0.484375 -0.988281 -0.390625 -1.53125 L 1.328125 -11.328125 C 1.410156 -11.804688 1.429688 -12.144531 1.390625 -12.34375 C 1.359375 -12.539062 1.34375 -12.640625 1.34375 -12.640625 C 1.34375 -12.640625 1.398438 -12.660156 1.515625 -12.703125 C 1.640625 -12.753906 1.847656 -12.78125 2.140625 -12.78125 C 2.734375 -12.78125 3.09375 -12.660156 3.21875 -12.421875 C 3.351562 -12.191406 3.375 -11.804688 3.28125 -11.265625 L 2.015625 -4.03125 L 2.640625 -4.03125 C 2.835938 -4.03125 3.015625 -4.128906 3.171875 -4.328125 C 3.335938 -4.535156 3.46875 -4.734375 3.5625 -4.921875 L 4.15625 -6.140625 C 4.46875 -6.773438 4.757812 -7.191406 5.03125 -7.390625 C 5.300781 -7.597656 5.601562 -7.703125 5.9375 -7.703125 C 6.25 -7.703125 6.492188 -7.609375 6.671875 -7.421875 C 6.847656 -7.234375 6.9375 -6.976562 6.9375 -6.65625 C 6.9375 -6.425781 6.890625 -6.234375 6.796875 -6.078125 C 6.710938 -5.921875 6.625 -5.800781 6.53125 -5.71875 C 6.4375 -5.632812 6.390625 -5.59375 6.390625 -5.59375 C 6.390625 -5.59375 6.367188 -5.640625 6.328125 -5.734375 C 6.285156 -5.828125 6.210938 -5.914062 6.109375 -6 C 6.015625 -6.09375 5.863281 -6.140625 5.65625 -6.140625 C 5.21875 -6.140625 4.859375 -5.832031 4.578125 -5.21875 L 4.3125 -4.671875 C 4.175781 -4.367188 4 -4.132812 3.78125 -3.96875 C 4.0625 -3.894531 4.285156 -3.769531 4.453125 -3.59375 C 4.617188 -3.425781 4.742188 -3.21875 4.828125 -2.96875 L 4.984375 -2.4375 C 5.097656 -2.082031 5.238281 -1.8125 5.40625 -1.625 C 5.582031 -1.4375 5.828125 -1.34375 6.140625 -1.34375 C 6.472656 -1.34375 6.789062 -1.476562 7.09375 -1.75 C 7.394531 -2.019531 7.628906 -2.332031 7.796875 -2.6875 C 7.898438 -2.6875 7.976562 -2.65625 8.03125 -2.59375 C 8.09375 -2.53125 8.113281 -2.425781 8.09375 -2.28125 C 8.0625 -2.070312 7.96875 -1.835938 7.8125 -1.578125 C 7.65625 -1.328125 7.453125 -1.082031 7.203125 -0.84375 C 6.953125 -0.601562 6.664062 -0.398438 6.34375 -0.234375 C 6.03125 -0.078125 5.691406 0 5.328125 0 C 4.816406 0 4.378906 -0.144531 4.015625 -0.4375 C 3.648438 -0.726562 3.375 -1.179688 3.1875 -1.796875 L 2.9375 -2.625 C 2.863281 -2.832031 2.773438 -2.992188 2.671875 -3.109375 C 2.566406 -3.222656 2.410156 -3.28125 2.203125 -3.28125 Z M 1.875 -3.28125 "/></g></g></g><g fill="#004aad" fill-opacity="1"><g transform="translate(44.835085, 17.328137)"><g><path d="M 6.796875 -6.171875 L 5.96875 -1.296875 C 5.96875 -1.296875 6.050781 -1.332031 6.21875 -1.40625 C 6.382812 -1.476562 6.597656 -1.578125 6.859375 -1.703125 C 7.128906 -1.828125 7.410156 -1.972656 7.703125 -2.140625 C 7.992188 -2.316406 8.25 -2.5 8.46875 -2.6875 C 8.570312 -2.6875 8.648438 -2.65625 8.703125 -2.59375 C 8.765625 -2.53125 8.785156 -2.441406 8.765625 -2.328125 C 8.734375 -2.191406 8.5625 -2.003906 8.25 -1.765625 C 7.96875 -1.554688 7.601562 -1.320312 7.15625 -1.0625 C 6.707031 -0.8125 6.257812 -0.578125 5.8125 -0.359375 L 5.78125 -0.171875 C 5.476562 1.617188 4.96875 2.992188 4.25 3.953125 C 3.53125 4.910156 2.601562 5.390625 1.46875 5.390625 C 0.9375 5.390625 0.515625 5.238281 0.203125 4.9375 C -0.109375 4.632812 -0.265625 4.25 -0.265625 3.78125 C -0.265625 3.320312 -0.144531 2.882812 0.09375 2.46875 C 0.34375 2.0625 0.65625 1.703125 1.03125 1.390625 C 1.425781 1.054688 1.835938 0.757812 2.265625 0.5 C 2.691406 0.238281 3.21875 -0.046875 3.84375 -0.359375 L 4.171875 -2.34375 C 4.066406 -2.144531 3.960938 -1.960938 3.859375 -1.796875 C 3.765625 -1.628906 3.660156 -1.46875 3.546875 -1.3125 C 3.222656 -0.863281 2.882812 -0.53125 2.53125 -0.3125 C 2.175781 -0.101562 1.789062 0 1.375 0 C 0.851562 0 0.441406 -0.160156 0.140625 -0.484375 C -0.160156 -0.816406 -0.3125 -1.25 -0.3125 -1.78125 C -0.3125 -2.070312 -0.296875 -2.359375 -0.265625 -2.640625 C -0.242188 -2.929688 -0.195312 -3.28125 -0.125 -3.6875 L 0.328125 -6.234375 C 0.410156 -6.722656 0.429688 -7.066406 0.390625 -7.265625 C 0.359375 -7.460938 0.34375 -7.5625 0.34375 -7.5625 C 0.34375 -7.5625 0.398438 -7.582031 0.515625 -7.625 C 0.640625 -7.675781 0.847656 -7.703125 1.140625 -7.703125 C 1.734375 -7.703125 2.09375 -7.582031 2.21875 -7.34375 C 2.351562 -7.113281 2.375 -6.722656 2.28125 -6.171875 L 1.65625 -2.625 C 1.59375 -2.175781 1.601562 -1.847656 1.6875 -1.640625 C 1.78125 -1.441406 1.941406 -1.34375 2.171875 -1.34375 C 2.347656 -1.34375 2.53125 -1.4375 2.71875 -1.625 C 2.914062 -1.8125 3.113281 -2.0625 3.3125 -2.375 C 3.613281 -2.832031 3.90625 -3.394531 4.1875 -4.0625 C 4.46875 -4.738281 4.6875 -5.460938 4.84375 -6.234375 C 4.925781 -6.722656 4.945312 -7.066406 4.90625 -7.265625 C 4.875 -7.460938 4.859375 -7.5625 4.859375 -7.5625 C 4.859375 -7.5625 4.914062 -7.582031 5.03125 -7.625 C 5.15625 -7.675781 5.363281 -7.703125 5.65625 -7.703125 C 6.25 -7.703125 6.609375 -7.582031 6.734375 -7.34375 C 6.867188 -7.113281 6.890625 -6.722656 6.796875 -6.171875 Z M 1.3125 4.375 C 1.851562 4.375 2.328125 4.054688 2.734375 3.421875 C 3.140625 2.785156 3.457031 1.847656 3.6875 0.609375 C 2.675781 1.140625 1.953125 1.613281 1.515625 2.03125 C 0.898438 2.613281 0.59375 3.164062 0.59375 3.6875 C 0.59375 3.875 0.648438 4.035156 0.765625 4.171875 C 0.890625 4.304688 1.070312 4.375 1.3125 4.375 Z M 1.3125 4.375 "/></g></g></g></g></g></svg>